<?xml version="1.0" encoding="UTF-8"?>
<!DOCTYPE svg PUBLIC "-//W3C//DTD SVG 1.1//EN" "http://www.w3.org/Graphics/SVG/1.1/DTD/svg11.dtd">
<svg version="1.1" xmlns="http://www.w3.org/2000/svg" xmlns:xlink="http://www.w3.org/1999/xlink" x="0" y="0" width="1000" height="500" viewBox="0, 0, 1000, 500">
  <g id="Layer_1">
    <path d="M51.875,70.33 L189.207,70.33 L189.207,207.662 L51.875,207.662 L51.875,70.33 z" fill-opacity="0" stroke="#B3B3B3" stroke-width="11"/>
    <g id="rect3935">
      <path d="M276.531,127.171 L452.25,127.171 L452.25,150.357 L276.531,150.357 z" fill="#A0A0A0"/>
      <g>
        <path d="M276.531,127.171 L452.25,127.171 L452.25,150.357 L276.531,150.357 z" fill="#A0A0A0"/>
        <path d="M276.531,127.171 L452.25,127.171 L452.25,150.357 L276.531,150.357 z" fill-opacity="0" stroke="#FFFFFF" stroke-width="0.781" stroke-linecap="round" stroke-linejoin="round"/>
      </g>
    </g>
    <g id="path2991-7-7">
      <path d="M419.972,139.228 C419.972,170.026 395.005,194.992 364.208,194.992 C333.41,194.992 308.444,170.026 308.444,139.228 C308.444,108.431 333.41,83.464 364.208,83.464 C395.005,83.464 419.972,108.431 419.972,139.228 z" fill="#A0A0A0"/>
      <path d="M419.972,139.228 C419.972,170.026 395.005,194.992 364.208,194.992 C333.41,194.992 308.444,170.026 308.444,139.228 C308.444,108.431 333.41,83.464 364.208,83.464 C395.005,83.464 419.972,108.431 419.972,139.228 z" fill="#A0A0A0"/>
    </g>
    <g id="path2993-4-1">
      <path d="M402.941,139.255 C402.941,160.602 385.636,177.907 364.289,177.907 C342.941,177.907 325.636,160.602 325.636,139.255 C325.636,117.907 342.941,100.603 364.289,100.603 C385.636,100.603 402.941,117.907 402.941,139.255 z" fill="#FFFFFF"/>
      <path d="M402.941,139.255 C402.941,160.602 385.636,177.907 364.289,177.907 C342.941,177.907 325.636,160.602 325.636,139.255 C325.636,117.907 342.941,100.603 364.289,100.603 C385.636,100.603 402.941,117.907 402.941,139.255 z" fill-opacity="0" stroke="#FFFFFF" stroke-width="0.371"/>
    </g>
    <g id="rect3935">
      <path d="M535.13,126.707 L710.849,126.707 L710.849,149.893 L535.13,149.893 z" fill="#000000"/>
      <g>
        <path d="M535.13,126.707 L710.849,126.707 L710.849,149.893 L535.13,149.893 z" fill="#000000"/>
        <path d="M535.13,126.707 L710.849,126.707 L710.849,149.893 L535.13,149.893 z" fill-opacity="0" stroke="#FFFFFF" stroke-width="0.781" stroke-linecap="round" stroke-linejoin="round"/>
      </g>
    </g>
    <g id="path2991-7-7">
      <path d="M678.571,138.764 C678.571,169.562 653.604,194.528 622.807,194.528 C592.009,194.528 567.043,169.562 567.043,138.764 C567.043,107.967 592.009,83 622.807,83 C653.604,83 678.571,107.967 678.571,138.764 z" fill="#000000"/>
      <path d="M678.571,138.764 C678.571,169.562 653.604,194.528 622.807,194.528 C592.009,194.528 567.043,169.562 567.043,138.764 C567.043,107.967 592.009,83 622.807,83 C653.604,83 678.571,107.967 678.571,138.764 z" fill="#000000"/>
    </g>
    <g id="path2993-4-1">
      <path d="M661.54,138.791 C661.54,160.138 644.235,177.444 622.888,177.444 C601.54,177.444 584.235,160.138 584.235,138.791 C584.235,117.444 601.54,100.139 622.888,100.139 C644.235,100.139 661.54,117.444 661.54,138.791 z" fill="#FFFFFF"/>
      <path d="M661.54,138.791 C661.54,160.138 644.235,177.444 622.888,177.444 C601.54,177.444 584.235,160.138 584.235,138.791 C584.235,117.444 601.54,100.139 622.888,100.139 C644.235,100.139 661.54,117.444 661.54,138.791 z" fill-opacity="0" stroke="#FFFFFF" stroke-width="0.371"/>
    </g>
    <g id="rect3953">
      <g>
        <path d="M106.216,104.444 L111.706,109.934 L76.57,145.07 L71.08,139.58 z" fill="#B3B3B3"/>
        <path d="M106.216,104.444 L111.706,109.934 L76.57,145.07 L71.08,139.58 z" fill-opacity="0" stroke="#B3B3B3" stroke-width="1"/>
      </g>
      <g>
        <path d="M106.216,104.444 L111.706,109.934 L76.57,145.07 L71.08,139.58 z" fill="#B3B3B3"/>
        <path d="M106.216,104.444 L111.706,109.934 L76.57,145.07 L71.08,139.58 z" fill-opacity="0" stroke="#B3B3B3" stroke-width="7.148"/>
      </g>
    </g>
    <g id="rect3953-8">
      <g>
        <path d="M109.347,167.426 L104.224,172.549 L71.439,139.763 L76.562,134.64 z" fill="#B3B3B3"/>
        <path d="M109.347,167.426 L104.224,172.549 L71.439,139.763 L76.562,134.64 z" fill-opacity="0" stroke="#B3B3B3" stroke-width="1"/>
      </g>
      <g>
        <path d="M109.347,167.426 L104.224,172.549 L71.439,139.763 L76.562,134.64 z" fill="#B3B3B3"/>
        <path d="M109.347,167.426 L104.224,172.549 L71.439,139.763 L76.562,134.64 z" fill-opacity="0" stroke="#B3B3B3" stroke-width="7.148"/>
      </g>
    </g>
    <g id="rect3953">
      <g>
        <path d="M136.913,104.444 L131.555,109.934 L165.849,145.07 L171.207,139.58 z" fill="#B3B3B3"/>
        <path d="M136.913,104.444 L131.555,109.934 L165.849,145.07 L171.207,139.58 z" fill-opacity="0" stroke="#B3B3B3" stroke-width="1"/>
      </g>
      <g>
        <path d="M136.913,104.444 L131.555,109.934 L165.849,145.07 L171.207,139.58 z" fill="#B3B3B3"/>
        <path d="M136.913,104.444 L131.555,109.934 L165.849,145.07 L171.207,139.58 z" fill-opacity="0" stroke="#B3B3B3" stroke-width="7.148"/>
      </g>
    </g>
    <g id="rect3953-8">
      <g>
        <path d="M133.857,167.426 L138.857,172.549 L170.857,139.763 L165.857,134.64 z" fill="#A0A0A0"/>
        <path d="M133.857,167.426 L138.857,172.549 L170.857,139.763 L165.857,134.64 z" fill-opacity="0" stroke="#B3B3B3" stroke-width="1"/>
      </g>
      <path d="M133.857,167.426 L138.857,172.549 L170.857,139.763 L165.857,134.64 z" fill-opacity="0" stroke="#B3B3B3" stroke-width="7.148"/>
    </g>
  </g>
</svg>
